Control Set_states
version=1
nRows=20
nColumns=17
inDegrees=yes

# SIMM Motion File Header:
name Control Set_states
datacolumns 17
datarows 20
otherdata 1
range 0.31945715 0.41660092
endheader
time	/jointset/r_shoulder/r_shoulder_elev/value	/jointset/r_shoulder/r_shoulder_elev/speed	/jointset/r_elbow/r_elbow_flex/value	/jointset/r_elbow/r_elbow_flex/speed	/forceset/TRIlong/activation	/forceset/TRIlong/fiber_length	/forceset/TRIlat/activation	/forceset/TRIlat/fiber_length	/forceset/TRImed/activation	/forceset/TRImed/fiber_length	/forceset/BIClong/activation	/forceset/BIClong/fiber_length	/forceset/BICshort/activation	/forceset/BICshort/fiber_length	/forceset/BRA/activation	/forceset/BRA/fiber_length
      0.31945715	     -2.69854940	     -0.83052172	     22.22825233	     76.16217631	     -0.01568811	      0.14363448	     -0.01568811	      0.07920820	     -0.01568811	      0.07421544	     -0.01568810	      0.14392168	     -0.01568811	      0.14263877	     -0.01568811	      0.08813739
      0.32303745	     -2.70039628	     -0.20019699	     22.49733428	     74.14196234	     -0.01614908	      0.14374182	     -0.01614908	      0.07931949	     -0.01614908	      0.07432680	     -0.01614906	      0.14382627	     -0.01614908	      0.14253856	     -0.01614908	      0.08807466
      0.32661774	     -2.69997952	      0.43341232	     22.75910128	     72.07762462	     -0.01661004	      0.14384766	     -0.01661004	      0.07942781	     -0.01661004	      0.07443412	     -0.01661002	      0.14373230	     -0.01661004	      0.14243994	     -0.01661004	      0.08801365
      0.33019804	     -2.69728757	      1.07083490	     23.01339593	     69.96758363	     -0.01707100	      0.14395194	     -0.01707100	      0.07953316	     -0.01707100	      0.07453930	     -0.01707098	      0.14363956	     -0.01707100	      0.14234303	     -0.01707100	      0.08795441
      0.33507421	     -2.68994323	      1.94131965	     23.34743618	     67.03172715	     -0.01769881	      0.14409137	     -0.01769881	      0.07967169	     -0.01769881	      0.07467662	     -0.01769879	      0.14351563	     -0.01769881	      0.14221397	     -0.01769881	      0.08787660
      0.33883867	     -2.68136682	      2.61530969	     23.59542855	     64.71597876	     -0.01818349	      0.14419688	     -0.01818349	      0.07977470	     -0.01818349	      0.07477975	     -0.01818347	      0.14342158	     -0.01818349	      0.14211679	     -0.01818349	      0.08781887
      0.34260314	     -2.67025497	      3.28795357	     23.83463803	     62.36674411	     -0.01866816	      0.14430046	     -0.01866816	      0.07987417	     -0.01866816	      0.07487843	     -0.01866814	      0.14332949	     -0.01866816	      0.14202188	     -0.01866816	      0.08776317
      0.34636761	     -2.65661342	      3.95914479	     24.06494089	     59.98453675	     -0.01915284	      0.14440206	     -0.01915284	      0.07997006	     -0.01915284	      0.07497392	     -0.01915282	      0.14323924	     -0.01915284	      0.14192936	     -0.01915284	      0.08770954
      0.35090990	     -2.63679797	      4.76467816	     24.33081088	     57.07378682	     -0.01973766	      0.14452195	     -0.01973766	      0.08008093	     -0.01973766	      0.07508417	     -0.01973764	      0.14313305	     -0.01973766	      0.14182104	     -0.01973766	      0.08764762
      0.35677702	     -2.60581338	      5.79499661	     24.65451886	     53.26549624	     -0.02049305	      0.14467229	     -0.02049305	      0.08021622	     -0.02049305	      0.07521878	     -0.02049303	      0.14300046	     -0.02049305	      0.14168679	     -0.02049305	      0.08757218
      0.36264413	     -2.56882824	      6.80941788	     24.95575787	     49.41684387	     -0.02124844	      0.14481739	     -0.02124844	      0.08034252	     -0.02124844	      0.07534424	     -0.02124842	      0.14287294	     -0.02124844	      0.14155919	     -0.02124844	      0.08750193
      0.36807214	     -2.52936041	      7.72940129	     25.21427644	     45.83504898	     -0.02194729	      0.14494684	     -0.02194729	      0.08045125	     -0.02194729	      0.07545242	     -0.02194728	      0.14276054	     -0.02194729	      0.14144733	     -0.02194729	      0.08744156
      0.37350015	     -2.48495575	      8.62794217	     25.45332582	     42.24482641	     -0.02264615	      0.14507159	     -0.02264615	      0.08055217	     -0.02264615	      0.07555264	     -0.02264613	      0.14265263	     -0.02264615	      0.14134166	     -0.02264615	      0.08738566
      0.37835502	     -2.44116065	      9.41006080	     25.65063125	     39.03834579	     -0.02327122	      0.14517912	     -0.02327121	      0.08063584	     -0.02327121	      0.07563575	     -0.02327120	      0.14256101	     -0.02327121	      0.14125252	     -0.02327121	      0.08733943
      0.38450371	     -2.38033726	     10.36738424	     25.87822516	     34.99734423	     -0.02406286	      0.14530973	     -0.02406286	      0.08073285	     -0.02406286	      0.07573204	     -0.02406284	      0.14245089	     -0.02406286	      0.14114707	     -0.02406286	      0.08728596
      0.39134699	     -2.30588246	     11.38295877	     26.10245891	     30.54805838	     -0.02494393	      0.14544772	     -0.02494393	      0.08082921	     -0.02494393	      0.07582762	     -0.02494391	      0.14233685	     -0.02494393	      0.14103968	     -0.02494393	      0.08723308
      0.39819028	     -2.22467599	     12.33961725	     26.29648361	     26.17205827	     -0.02582500	      0.14557786	     -0.02582500	      0.08091352	     -0.02582500	      0.07591116	     -0.02582499	      0.14223115	     -0.02582500	      0.14094291	     -0.02582500	      0.08718708
      0.40390915	     -2.15194340	     13.08821166	     26.43588271	     22.59180452	     -0.02656131	      0.14568060	     -0.02656131	      0.08097491	     -0.02656131	      0.07597192	     -0.02656129	      0.14215028	     -0.02656131	      0.14087022	     -0.02656131	      0.08715381
      0.40962801	     -2.07507113	     13.78679161	     26.55503917	     19.09485780	     -0.02729761	      0.14577784	     -0.02729761	      0.08102824	     -0.02729761	      0.07602461	     -0.02729759	      0.14207545	     -0.02729761	      0.14080499	     -0.02729761	      0.08712515
      0.41660092	     -1.97617431	     14.56517649	     26.67369359	     14.96500550	     -0.02819537	      0.14588902	     -0.02819537	      0.08108266	     -0.02819537	      0.07607826	     -0.02819536	      0.14199289	     -0.02819537	      0.14073544	     -0.02819537	      0.08709627
